REM DIRINDEX 1\3,1\2\4,1\2\5,1\2\6
REM DIRNAME cjc137,folder01,folder02,folder03,folder04,folder05
TITLE ""
FILE "021.mp3" MP3
  TRACK 01 AUDIO
    TITLE "4:cjc137_0843"
    INDEX 01 00:00:00
  TRACK 02 AUDIO
    TITLE "0:"
    INDEX 01 00:01:11
  TRACK 03 AUDIO
    TITLE "6:cjc137_0844"
    INDEX 01 00:01:22
  TRACK 04 AUDIO
    TITLE "0:"
    INDEX 01 00:02:30
  TRACK 05 AUDIO
    TITLE "5:cjc137_0845"
    INDEX 01 00:02:36
  TRACK 06 AUDIO
    TITLE "0:"
    INDEX 01 00:03:47
  TRACK 07 AUDIO
    TITLE "4:cjc137_0846"
    INDEX 01 00:04:58
  TRACK 08 AUDIO
    TITLE "0:"
    INDEX 01 00:05:65
  TRACK 09 AUDIO
    TITLE "6:cjc137_0847"
    INDEX 01 00:05:71
  TRACK 10 AUDIO
    TITLE "0:"
    INDEX 01 00:07:03
  TRACK 11 AUDIO
    TITLE "5:cjc137_0848"
    INDEX 01 00:07:11
  TRACK 12 AUDIO
    TITLE "0:"
    INDEX 01 00:08:17
  TRACK 13 AUDIO
    TITLE "4:cjc137_0849"
    INDEX 01 00:09:22
  TRACK 14 AUDIO
    TITLE "0:"
    INDEX 01 00:10:27
  TRACK 15 AUDIO
    TITLE "6:cjc137_0850"
    INDEX 01 00:10:33
  TRACK 16 AUDIO
    TITLE "0:"
    INDEX 01 00:12:07
  TRACK 17 AUDIO
    TITLE "5:cjc137_0851"
    INDEX 01 00:12:12
  TRACK 18 AUDIO
    TITLE "0:"
    INDEX 01 00:13:18
  TRACK 19 AUDIO
    TITLE "4:cjc137_0852"
    INDEX 01 00:14:23
  TRACK 20 AUDIO
    TITLE "0:"
    INDEX 01 00:15:44
  TRACK 21 AUDIO
    TITLE "6:cjc137_0853"
    INDEX 01 00:15:52
  TRACK 22 AUDIO
    TITLE "0:"
    INDEX 01 00:16:65
  TRACK 23 AUDIO
    TITLE "5:cjc137_0854"
    INDEX 01 00:16:69
  TRACK 24 AUDIO
    TITLE "0:"
    INDEX 01 00:18:15
  TRACK 25 AUDIO
    TITLE "4:cjc137_0855"
    INDEX 01 00:19:22
  TRACK 26 AUDIO
    TITLE "0:"
    INDEX 01 00:20:36
  TRACK 27 AUDIO
    TITLE "6:cjc137_0856"
    INDEX 01 00:20:41
  TRACK 28 AUDIO
    TITLE "0:"
    INDEX 01 00:21:41
  TRACK 29 AUDIO
    TITLE "5:cjc137_0857"
    INDEX 01 00:21:47
  TRACK 30 AUDIO
    TITLE "0:"
    INDEX 01 00:22:60
  TRACK 31 AUDIO
    TITLE "4:cjc137_0858"
    INDEX 01 00:23:65
  TRACK 32 AUDIO
    TITLE "0:"
    INDEX 01 00:24:65
  TRACK 33 AUDIO
    TITLE "6:cjc137_0859"
    INDEX 01 00:24:71
  TRACK 34 AUDIO
    TITLE "0:"
    INDEX 01 00:25:66
  TRACK 35 AUDIO
    TITLE "5:cjc137_0860"
    INDEX 01 00:25:72
  TRACK 36 AUDIO
    TITLE "0:"
    INDEX 01 00:26:71
  TRACK 37 AUDIO
    TITLE "4:cjc137_0861"
    INDEX 01 00:28:02
  TRACK 38 AUDIO
    TITLE "0:"
    INDEX 01 00:29:07
  TRACK 39 AUDIO
    TITLE "6:cjc137_0862"
    INDEX 01 00:29:11
  TRACK 40 AUDIO
    TITLE "0:"
    INDEX 01 00:30:03
  TRACK 41 AUDIO
    TITLE "5:cjc137_0863"
    INDEX 01 00:30:08
  TRACK 42 AUDIO
    TITLE "0:"
    INDEX 01 00:31:14
  TRACK 43 AUDIO
    TITLE "4:cjc137_0864"
    INDEX 01 00:32:19
  TRACK 44 AUDIO
    TITLE "0:"
    INDEX 01 00:33:22
  TRACK 45 AUDIO
    TITLE "6:cjc137_0865"
    INDEX 01 00:33:32
  TRACK 46 AUDIO
    TITLE "0:"
    INDEX 01 00:34:26
  TRACK 47 AUDIO
    TITLE "5:cjc137_0866"
    INDEX 01 00:34:32
  TRACK 48 AUDIO
    TITLE "0:"
    INDEX 01 00:35:37
  TRACK 49 AUDIO
    TITLE "4:cjc137_0867"
    INDEX 01 00:36:44
  TRACK 50 AUDIO
    TITLE "0:"
    INDEX 01 00:37:48
  TRACK 51 AUDIO
    TITLE "6:cjc137_0868"
    INDEX 01 00:37:61
  TRACK 52 AUDIO
    TITLE "0:"
    INDEX 01 00:38:55
  TRACK 53 AUDIO
    TITLE "5:cjc137_0869"
    INDEX 01 00:38:63
  TRACK 54 AUDIO
    TITLE "0:"
    INDEX 01 00:39:66
  TRACK 55 AUDIO
    TITLE "4:cjc137_0870"
    INDEX 01 00:41:02
  TRACK 56 AUDIO
    TITLE "0:"
    INDEX 01 00:42:19
  TRACK 57 AUDIO
    TITLE "6:cjc137_0871"
    INDEX 01 00:42:29
  TRACK 58 AUDIO
    TITLE "0:"
    INDEX 01 00:43:48
  TRACK 59 AUDIO
    TITLE "5:cjc137_0872"
    INDEX 01 00:43:54
  TRACK 60 AUDIO
    TITLE "0:"
    INDEX 01 00:44:71
  TRACK 61 AUDIO
    TITLE "4:cjc137_0873"
    INDEX 01 00:46:06
  TRACK 62 AUDIO
    TITLE "0:"
    INDEX 01 00:47:21
  TRACK 63 AUDIO
    TITLE "6:cjc137_0874"
    INDEX 01 00:47:28
  TRACK 64 AUDIO
    TITLE "0:"
    INDEX 01 00:48:53
  TRACK 65 AUDIO
    TITLE "5:cjc137_0875"
    INDEX 01 00:48:63
  TRACK 66 AUDIO
    TITLE "0:"
    INDEX 01 00:50:01
  TRACK 67 AUDIO
    TITLE "4:cjc137_0876"
    INDEX 01 00:51:13
  TRACK 68 AUDIO
    TITLE "0:"
    INDEX 01 00:52:14
  TRACK 69 AUDIO
    TITLE "6:cjc137_0877"
    INDEX 01 00:52:22
  TRACK 70 AUDIO
    TITLE "0:"
    INDEX 01 00:53:35
  TRACK 71 AUDIO
    TITLE "5:cjc137_0878"
    INDEX 01 00:53:43
  TRACK 72 AUDIO
    TITLE "0:"
    INDEX 01 00:54:44
  TRACK 73 AUDIO
    TITLE "4:cjc137_0879"
    INDEX 01 00:55:53
  TRACK 74 AUDIO
    TITLE "0:"
    INDEX 01 00:56:57
  TRACK 75 AUDIO
    TITLE "6:cjc137_0880"
    INDEX 01 00:56:65
  TRACK 76 AUDIO
    TITLE "0:"
    INDEX 01 00:57:54
  TRACK 77 AUDIO
    TITLE "5:cjc137_0881"
    INDEX 01 00:57:60
  TRACK 78 AUDIO
    TITLE "0:"
    INDEX 01 00:58:62
  TRACK 79 AUDIO
    TITLE "4:cjc137_0882"
    INDEX 01 00:59:73
  TRACK 80 AUDIO
    TITLE "0:"
    INDEX 01 01:01:01
  TRACK 81 AUDIO
    TITLE "6:cjc137_0883"
    INDEX 01 01:01:09
  TRACK 82 AUDIO
    TITLE "0:"
    INDEX 01 01:01:72
  TRACK 83 AUDIO
    TITLE "5:cjc137_0884"
    INDEX 01 01:02:05
  TRACK 84 AUDIO
    TITLE "0:"
    INDEX 01 01:03:08
